<svg xmlns="http://www.w3.org/2000/svg" xmlns:xlink="http://www.w3.org/1999/xlink" viewBox="0 0 799.29 334.91"><defs><style>.cls-1{fill:url(#未命名的渐变_8);}.cls-2{fill:url(#未命名的渐变_15);}.cls-3{fill:url(#未命名的渐变_13);}.cls-4{fill:#1e2028;}.cls-5{fill:#5e068e;}</style><linearGradient id="未命名的渐变_8" x1="30.46" y1="270.98" x2="8.09" y2="233.39" gradientUnits="userSpaceOnUse"><stop offset="0" stop-color="#5e068e"/><stop offset="1" stop-color="#3e106b"/></linearGradient><linearGradient id="未命名的渐变_15" x1="195.15" y1="85.29" x2="-12.49" y2="67.78" gradientUnits="userSpaceOnUse"><stop offset="0.88" stop-color="#5e068e"/><stop offset="1" stop-color="#3e106b"/></linearGradient><linearGradient id="未命名的渐变_13" x1="141.16" y1="184.18" x2="-14.14" y2="173.29" gradientUnits="userSpaceOnUse"><stop offset="0.86" stop-color="#5e068e"/><stop offset="1" stop-color="#3e106b"/></linearGradient></defs><title>资源 16</title><g id="图层_2" data-name="图层 2"><g id="图层_1-2" data-name="图层 1"><path class="cls-1" d="M21.06,201.16h36a0,0,0,0,1,0,0v80.06A53.69,53.69,0,0,1,3.38,334.91h-3a0,0,0,0,1,0,0v-113a20.71,20.71,0,0,1,20.71-20.71Z"/><path class="cls-2" d="M1.15,154.71S-7.12,85.58,23.51,64.45C53.57,43.72,89,36.63,133.17,22.19L201,0s21.79,35.58-7.39,58.05c-39.59,30.49-101,39.25-150,60.28C14,131,1.15,154.71,1.15,154.71Z"/><path class="cls-3" d="M4.5,182.77c6.26-13.26,8.74-24.31,34.33-35.39,35.4-15.32,58.52-18.62,81.88-24.83,19.83-5.26,30.64-8.45,30.64-8.45S163,150.25,142.9,168C116.48,191.23,60,198.51,39.23,211.08,16.12,225,.34,245.1.34,245.1S-1.77,196,4.5,182.77Z"/><path class="cls-4" d="M298,239.82v-68h4.48c3.5,0,6.34,3.22,6.34,7.2v60.81Z"/><path class="cls-4" d="M298.2,154.69h7.56a3,3,0,0,1,3,3v10.49a0,0,0,0,1,0,0H301.2a3,3,0,0,1-3-3V154.69A0,0,0,0,1,298.2,154.69Z"/><path class="cls-5" d="M599.3,239.61c-8.71.38-15.52-.59-20.81-2.53-15.9-5.8-19.33-19.76-19.36-31.79,0-20.27,12.7-32.94,30.31-33.08,16.2-.13,28.72,11,28.72,32.9,0,9,.15,34.94.05,34.71h-9.89c0-.36-.07-26.15-.07-34.55,0-16.14-9-22.27-19.25-22.52-8.72-.22-19.34,8.55-20,22.49-.38,8.53,1.85,16,12.85,21.6,3.44,1.75,7.82,2.35,11.33,2.51a6.37,6.37,0,0,1,6.08,6.34Z"/><path class="cls-4" d="M394.64,205.44c-.22,8,1.92,17.75,12.77,22.28,2.74,1.14,6.2,1.49,10.2,1.49a25.72,25.72,0,0,0,8.19-1.54c3.49-1.58,7.79,2.38,8.5,6.12l.33,1.75c-3.05,1.36-14.6,4.3-18.88,4.28-10.76,0-18.16-4.22-23.26-9.76-7.57-8.2-8-16.25-8.27-23.75-.29-8.75,2.81-19.31,7.28-24.16a30.46,30.46,0,0,1,9.91-7.3,31.54,31.54,0,0,1,13.12-2.64c7.36,0,15.81,3.17,19.75,9.69,5.15,8.54,5.57,15.66,5.2,24.35L406,212.59l0-5.15c0-3.48,3.23-5.65,6.85-6.3L429.56,198c-1.33-12-6.61-16.25-15.46-16.69-2.75-.14-8.05,1.49-12.69,5.54C398.75,190,395.33,194.12,394.64,205.44Z"/><path class="cls-5" d="M708.42,205.24c-.22,8,1.91,17.74,12.77,22.27,2.73,1.14,6.2,1.49,10.2,1.49a25.79,25.79,0,0,0,8.19-1.54c3.49-1.58,7.79,2.38,8.49,6.12l.34,1.75c-3,1.36-14.6,4.3-18.88,4.28-10.76-.05-18.16-4.22-23.27-9.76-7.57-8.2-8-16.25-8.27-23.75-.28-8.75,2.82-19.31,7.29-24.15a30.35,30.35,0,0,1,9.91-7.31A31.54,31.54,0,0,1,728.31,172c7.36,0,15.81,3.17,19.75,9.69,5.15,8.54,5.57,15.66,5.2,24.36l-33.52,6.33,0-5.15c0-3.48,3.23-5.65,6.85-6.3l16.73-3.17c-1.33-12-6.61-16.25-15.46-16.69-2.76-.14-8.06,1.49-12.69,5.54C712.53,189.76,709.11,193.92,708.42,205.24Z"/><path class="cls-5" d="M641.51,214.22a12.53,12.53,0,0,0,1.52,6.66c2.76,4.15,5.93,6.27,11.21,7.32,3.17,1.06,5.15,3.3,5.15,7V240s-9.38-1.27-14.32-3.17a25.35,25.35,0,0,1-11.88-9.33,24.79,24.79,0,0,1-3.56-13.64V139.78h5.54c3.5,0,6.34,3.23,6.34,7.2Z"/><path class="cls-5" d="M761.94,139.09h11.88v33.23h16.63v3.74c0,4-6,7.2-9.51,7.2h-7.12v23c0,2.1-.2,8.21,1.85,11.7,3.74,6.37,15.91,8.13,17.87,8.51,2.56.5,5.75,2.46,5.75,5.43v7.54s-10.81-2.4-17.22-3.84c-3.34-.76-12.31-3.73-16.76-10.68-3.31-5.17-3.37-14.51-3.37-18.21Z"/><path class="cls-5" d="M674.55,213.64a12.63,12.63,0,0,0,1.51,6.66c2.77,4.15,5.94,6.27,11.22,7.32a6.86,6.86,0,0,1,5.14,7v4.88s-9.37-1.27-14.31-3.17A25.29,25.29,0,0,1,666.23,227a24.77,24.77,0,0,1-3.56-13.64V139.2h5.54c3.5,0,6.34,3.23,6.34,7.2Z"/><path class="cls-4" d="M247.69,239.82h11.88V189.65h16.62v-3.74c0-4-6-7.21-9.5-7.21h-7.12v.22c0-2.1-.2-14.56,1.84-18,3.75-6.38,15.92-8.14,17.87-8.52,2.56-.5,5.76-2.47,5.76-5.43v-7.56l-17.22,3.85c-3.35.76-12.32,3.73-16.77,10.69-3.3,5.18-3.36,14.53-3.36,18.23Z"/><path class="cls-4" d="M331.83,239.82H321v-68h5c3.5,0,5.28,3.22,5.28,7.2Z"/><path class="cls-4" d="M330.71,179.68c4.22-3.41,9.5-8.29,17.61-8.42C365.57,171,377,182.39,377,204.62c0,9.13.15,35.43.05,35.2h-9.89c0-.36-.07-26.52-.07-35,0-16.36-7.89-23.23-19.25-22.83-5.55.19-13.28,5.71-16.86,9.78Z"/><path class="cls-5" d="M501.39,239.82h-6a6.34,6.34,0,0,1-6.18-4.91l-22-95.44h7.26a6,6,0,0,1,5.68,4.88l15.74,74.71,17.26-74.83a6,6,0,0,1,5.65-4.76h6.26Z"/><path class="cls-5" d="M532.05,239.82h-6a6.32,6.32,0,0,1-6.17-4.89l-6.21-26.42,6.28-24.11L526.58,218l17.26-73.78a6,6,0,0,1,5.65-4.76h6.26Z"/></g></g></svg>