<svg xmlns="http://www.w3.org/2000/svg" xmlns:xlink="http://www.w3.org/1999/xlink" viewBox="0 0 799.27 335.33"><defs><style>.cls-1{fill:#fff;}.cls-2{fill:url(#未命名的渐变_19);}.cls-3{fill:url(#未命名的渐变_19-2);}.cls-4{fill:url(#未命名的渐变_19-3);}</style><linearGradient id="未命名的渐变_19" x1="30" y1="272.92" x2="14.94" y2="218.47" gradientUnits="userSpaceOnUse"><stop offset="0" stop-color="#fff"/><stop offset="1" stop-color="#cdbaef"/></linearGradient><linearGradient id="未命名的渐变_19-2" x1="0.13" y1="77.46" x2="209.12" y2="77.46" xlink:href="#未命名的渐变_19"/><linearGradient id="未命名的渐变_19-3" x1="0" y1="179.83" x2="154.92" y2="179.83" xlink:href="#未命名的渐变_19"/></defs><title>资源 13</title><g id="图层_2" data-name="图层 2"><g id="图层_1-2" data-name="图层 1"><path class="cls-1" d="M298,239.79v-68h4.48c3.5,0,6.34,3.22,6.34,7.2v60.81Z"/><path class="cls-1" d="M298.18,154.66h7.56a3,3,0,0,1,3,3v10.49a0,0,0,0,1,0,0h-7.56a3,3,0,0,1-3-3V154.66A0,0,0,0,1,298.18,154.66Z"/><path class="cls-1" d="M599.28,239.58c-8.72.38-15.52-.59-20.82-2.53-15.9-5.8-19.33-19.76-19.36-31.79,0-20.27,12.71-32.94,30.32-33.08,16.2-.13,28.72,11,28.72,32.9,0,9,.14,34.94,0,34.71H608.3c0-.36-.07-26.15-.07-34.55,0-16.13-9-22.27-19.25-22.52-8.72-.22-19.35,8.55-20,22.5-.38,8.52,1.85,16,12.85,21.59,3.44,1.75,7.82,2.35,11.32,2.52a6.36,6.36,0,0,1,6.09,6.33Z"/><path class="cls-1" d="M394.62,205.42c-.22,8,1.91,17.74,12.77,22.27,2.73,1.14,6.2,1.49,10.2,1.49a25.79,25.79,0,0,0,8.19-1.54c3.49-1.58,7.79,2.38,8.49,6.12l.34,1.75c-3.05,1.36-14.6,4.3-18.88,4.28-10.76,0-18.16-4.22-23.27-9.76-7.57-8.2-8-16.25-8.27-23.75-.28-8.75,2.82-19.31,7.29-24.15a30.35,30.35,0,0,1,9.91-7.31,31.5,31.5,0,0,1,13.12-2.64c7.36,0,15.81,3.17,19.75,9.69,5.15,8.54,5.57,15.66,5.2,24.36l-33.52,6.33,0-5.15c0-3.48,3.23-5.65,6.85-6.3l16.73-3.17c-1.33-12-6.61-16.25-15.46-16.69-2.76-.14-8.06,1.49-12.69,5.54C398.73,189.94,395.31,194.1,394.62,205.42Z"/><path class="cls-1" d="M708.4,205.21c-.22,8,1.91,17.74,12.77,22.27,2.73,1.14,6.2,1.49,10.19,1.49a25.65,25.65,0,0,0,8.19-1.54c3.49-1.58,7.8,2.38,8.5,6.12l.33,1.75c-3,1.36-14.59,4.3-18.87,4.29-10.77-.05-18.16-4.23-23.27-9.77-7.57-8.2-8-16.25-8.27-23.75-.28-8.75,2.81-19.31,7.29-24.15a30.24,30.24,0,0,1,9.91-7.31A31.49,31.49,0,0,1,728.28,172c7.37,0,15.82,3.17,19.75,9.69,5.15,8.54,5.58,15.67,5.21,24.36l-33.52,6.34,0-5.16c0-3.48,3.23-5.65,6.85-6.3l16.73-3.16c-1.33-12-6.62-16.26-15.46-16.7-2.76-.14-8.06,1.49-12.69,5.54C712.51,189.73,709.09,193.89,708.4,205.21Z"/><path class="cls-1" d="M641.48,214.19a12.72,12.72,0,0,0,1.52,6.66c2.76,4.15,5.93,6.27,11.22,7.32a6.86,6.86,0,0,1,5.14,7V240s-9.37-1.27-14.31-3.17a25.24,25.24,0,0,1-11.88-9.33,24.69,24.69,0,0,1-3.56-13.64V139.75h5.54c3.5,0,6.33,3.23,6.33,7.2Z"/><path class="cls-1" d="M761.92,139.06H773.8v33.23h16.63V176c0,4-6,7.2-9.51,7.2H773.8v23c0,2.1-.2,8.21,1.85,11.7,3.74,6.37,15.91,8.13,17.87,8.51,2.56.5,5.75,2.46,5.75,5.43v7.54s-10.81-2.4-17.22-3.84c-3.35-.76-12.32-3.73-16.76-10.68-3.31-5.17-3.37-14.51-3.37-18.21Z"/><path class="cls-1" d="M674.52,213.61a12.72,12.72,0,0,0,1.52,6.66c2.76,4.16,5.93,6.27,11.22,7.33a6.84,6.84,0,0,1,5.14,7v4.88s-9.37-1.27-14.31-3.17a25.24,25.24,0,0,1-11.88-9.33q-3.57-5.53-3.56-13.64V139.18h5.53c3.51,0,6.34,3.22,6.34,7.2Z"/><path class="cls-1" d="M247.67,239.79h11.87V189.63h16.63v-3.75c0-4-6-7.21-9.51-7.21h-7.12v.22c0-2.1-.19-14.56,1.85-18,3.74-6.38,15.92-8.14,17.87-8.52,2.56-.5,5.76-2.47,5.76-5.43v-7.56l-17.22,3.85c-3.35.76-12.32,3.73-16.77,10.69-3.31,5.18-3.36,14.53-3.36,18.23Z"/><path class="cls-1" d="M331.8,239.79H321v-68h5c3.5,0,5.29,3.22,5.29,7.2Z"/><path class="cls-1" d="M330.68,179.65c4.23-3.41,9.51-8.29,17.61-8.42C365.55,171,377,182.36,377,204.59c0,9.13.15,35.43.05,35.2h-9.89c0-.36-.07-26.52-.07-35,0-16.36-7.89-23.23-19.25-22.83-5.56.19-13.28,5.72-16.86,9.78Z"/><path class="cls-1" d="M501.37,239.79h-6a6.33,6.33,0,0,1-6.18-4.91l-22-95.44h7.26a6,6,0,0,1,5.68,4.88L495.9,219l17.26-74.83a6,6,0,0,1,5.65-4.76h6.26Z"/><path class="cls-1" d="M532,239.79h-6a6.33,6.33,0,0,1-6.17-4.89l-6.2-26.42,6.28-24.11L526.56,218l17.26-73.78a6,6,0,0,1,5.65-4.76h6.26Z"/><path class="cls-2" d="M.34,335.33h0v-108a25.9,25.9,0,0,1,25.89-25.89H57.14v77.13A56.8,56.8,0,0,1,.34,335.33Z"/><path class="cls-3" d="M1.15,154.91S-7.13,85.68,23.54,64.53c30.09-20.75,65.6-27.86,109.8-42.32L201.26,0s21.91,34.75-7.41,57.12C153.66,87.8,92.78,97.42,43.64,118.48,14,131.17,1.15,154.91,1.15,154.91Z"/><path class="cls-4" d="M4.5,183c6.28-13.28,8.75-24.35,34.38-35.44,35.44-15.34,58.59-18.65,82-24.86,19.86-5.27,30.68-8.46,30.68-8.46s11.71,36.19-8.46,53.95c-26.45,23.27-83,30.57-103.81,43.15C16.14,225.32.34,245.41.34,245.41S-1.77,196.29,4.5,183Z"/></g></g></svg>