<svg xmlns="http://www.w3.org/2000/svg" xmlns:xlink="http://www.w3.org/1999/xlink" viewBox="0 0 418.61 457.7"><defs><style>.cls-1{fill:#1e2028;}.cls-2{fill:url(#未命名的渐变_8);}.cls-3{fill:url(#未命名的渐变_15);}.cls-4{fill:url(#未命名的渐变_13);}.cls-5{fill:#5e068e;}</style><linearGradient id="未命名的渐变_8" x1="172.77" y1="270.98" x2="150.4" y2="233.39" gradientUnits="userSpaceOnUse"><stop offset="0" stop-color="#5e068e"/><stop offset="1" stop-color="#3e106b"/></linearGradient><linearGradient id="未命名的渐变_15" x1="337.47" y1="85.29" x2="129.82" y2="67.78" gradientUnits="userSpaceOnUse"><stop offset="0.88" stop-color="#5e068e"/><stop offset="1" stop-color="#3e106b"/></linearGradient><linearGradient id="未命名的渐变_13" x1="283.47" y1="184.18" x2="128.17" y2="173.29" gradientUnits="userSpaceOnUse"><stop offset="0.86" stop-color="#5e068e"/><stop offset="1" stop-color="#3e106b"/></linearGradient></defs><title>资源 15</title><g id="图层_2" data-name="图层 2"><g id="图层_1-2" data-name="图层 1"><path class="cls-1" d="M38.2,457.54V405.92h3.4c2.66,0,4.82,2.44,4.82,5.46v46.16Z"/><path class="cls-2" d="M163.37,201.16h36a0,0,0,0,1,0,0v80.06a53.69,53.69,0,0,1-53.69,53.69h-3a0,0,0,0,1,0,0v-113A20.71,20.71,0,0,1,163.37,201.16Z"/><path class="cls-3" d="M143.46,154.71s-8.27-69.13,22.36-90.26c30.06-20.73,65.52-27.82,109.66-42.26L343.31,0s21.79,35.58-7.39,58.05c-39.59,30.49-101,39.25-150,60.28C156.32,131,143.46,154.71,143.46,154.71Z"/><path class="cls-4" d="M146.81,182.77c6.26-13.26,8.74-24.31,34.33-35.39,35.4-15.32,58.52-18.62,81.88-24.83,19.83-5.26,30.64-8.45,30.64-8.45s11.69,36.15-8.45,53.88c-26.41,23.25-82.87,30.53-103.67,43.1-23.11,13.95-38.89,34-38.89,34S140.54,196,146.81,182.77Z"/><path class="cls-1" d="M38.33,392.93h5a3,3,0,0,1,3,3v7.24a0,0,0,0,1,0,0h-5a3,3,0,0,1-3-3v-7.24A0,0,0,0,1,38.33,392.93Z"/><path class="cls-5" d="M266.83,457.37c-6.61.29-11.77-.45-15.79-1.91-12.07-4.41-14.67-15-14.69-24.13,0-15.39,9.64-25,23-25.11,12.29-.09,21.8,8.33,21.8,25,0,6.83.11,26.51,0,26.35h-7.5c0-.28-.06-19.86-.06-26.23,0-12.24-6.79-16.9-14.6-17.09-6.62-.16-14.68,6.49-15.15,17.07-.29,6.47,1.4,12.15,9.75,16.39a22.1,22.1,0,0,0,8.6,1.91,4.81,4.81,0,0,1,4.61,4.81Z"/><path class="cls-1" d="M111.52,431.45c-.17,6,1.45,13.46,9.69,16.9a20.5,20.5,0,0,0,7.74,1.13,19.32,19.32,0,0,0,6.21-1.17c2.65-1.2,5.92,1.81,6.45,4.64l.26,1.34c-2.31,1-11.08,3.26-14.33,3.25-8.17,0-13.78-3.21-17.66-7.41-5.74-6.22-6.09-12.34-6.27-18-.22-6.64,2.13-14.65,5.53-18.33a23.14,23.14,0,0,1,7.52-5.55,24,24,0,0,1,10-2c5.59,0,12,2.41,15,7.36,3.91,6.48,4.23,11.88,4,18.48l-25.44,4.81,0-3.91c0-2.64,2.45-4.29,5.2-4.78l12.69-2.4c-1-9.13-5-12.34-11.73-12.68-2.09-.1-6.12,1.14-9.63,4.21C114.64,419.7,112,422.85,111.52,431.45Z"/><path class="cls-5" d="M349.64,431.29c-.16,6,1.46,13.46,9.69,16.9a20.5,20.5,0,0,0,7.74,1.13,19.4,19.4,0,0,0,6.22-1.17c2.65-1.2,5.91,1.81,6.45,4.65l.25,1.33c-2.31,1-11.08,3.26-14.33,3.25-8.17,0-13.78-3.21-17.65-7.41-5.75-6.22-6.09-12.34-6.28-18-.22-6.64,2.13-14.65,5.53-18.33a23,23,0,0,1,7.52-5.54,23.87,23.87,0,0,1,10-2c5.59,0,12,2.41,15,7.36,3.91,6.48,4.23,11.89,3.95,18.48l-25.44,4.81,0-3.91c0-2.64,2.45-4.29,5.2-4.78l12.69-2.4c-1-9.13-5-12.34-11.73-12.68-2.09-.1-6.11,1.14-9.63,4.22C352.76,419.54,350.16,422.7,349.64,431.29Z"/><path class="cls-5" d="M298.86,438.1a9.56,9.56,0,0,0,1.16,5.06,12,12,0,0,0,8.51,5.56,5.2,5.2,0,0,1,3.9,5.28v3.7s-7.11-1-10.86-2.41a19.18,19.18,0,0,1-9-7.08,18.76,18.76,0,0,1-2.7-10.35V381.62h4.2c2.66,0,4.81,2.44,4.81,5.46Z"/><path class="cls-5" d="M390.26,381.09h9v25.22h12.61v2.84c0,3-4.56,5.46-7.21,5.46h-5.4v17.45c0,1.59-.16,6.23,1.4,8.88,2.84,4.84,12.07,6.17,13.56,6.46,1.94.38,4.37,1.87,4.37,4.12v5.73l-13.07-2.92c-2.54-.57-9.35-2.83-12.73-8.1-2.5-3.93-2.55-11-2.55-13.83Z"/><path class="cls-5" d="M323.94,437.66a9.57,9.57,0,0,0,1.15,5.06,12,12,0,0,0,8.51,5.56,5.2,5.2,0,0,1,3.9,5.28v3.7s-7.11-1-10.86-2.41a19.1,19.1,0,0,1-9-7.08,18.68,18.68,0,0,1-2.71-10.35V381.18h4.21c2.65,0,4.81,2.44,4.81,5.46Z"/><path class="cls-1" d="M0,457.54H9V419.46H21.63v-2.84c0-3-4.56-5.47-7.21-5.47H9v.17c0-1.6-.15-11.05,1.41-13.7,2.83-4.85,12.07-6.18,13.56-6.47,1.94-.38,4.36-1.87,4.36-4.12V381.3s-8.2,1.82-13.06,2.92c-2.54.57-9.35,2.83-12.73,8.11C0,396.26,0,403.36,0,406.17Z"/><path class="cls-1" d="M63.85,457.54H55.64V405.92h3.8c2.66,0,4,2.44,4,5.46Z"/><path class="cls-1" d="M63,411.89c3.21-2.59,7.22-6.29,13.36-6.39,13.1-.2,21.8,8.45,21.8,25.32,0,6.93.11,26.88,0,26.71h-7.5c0-.27-.06-20.12-.06-26.59,0-12.41-6-17.63-14.6-17.33C71.81,413.76,66,418,63.23,421Z"/><path class="cls-5" d="M192.53,457.54H188a4.81,4.81,0,0,1-4.69-3.74l-16.66-72.42h5.5a4.51,4.51,0,0,1,4.31,3.7l11.95,56.7L201.48,385a4.5,4.5,0,0,1,4.29-3.61h4.75Z"/><path class="cls-5" d="M215.8,457.54h-4.58a4.81,4.81,0,0,1-4.68-3.72l-4.71-20.05,4.76-18.29,5.06,25.5,13.1-56a4.5,4.5,0,0,1,4.29-3.61h4.74Z"/></g></g></svg>