<svg xmlns="http://www.w3.org/2000/svg" xmlns:xlink="http://www.w3.org/1999/xlink" viewBox="0 0 418.61 457.63"><defs><style>.cls-1{fill:url(#未命名的渐变_19);}.cls-2{fill:url(#未命名的渐变_19-2);}.cls-3{fill:url(#未命名的渐变_19-3);}.cls-4{fill:#fff;}</style><linearGradient id="未命名的渐变_19" x1="172" y1="272.92" x2="156.94" y2="218.47" gradientUnits="userSpaceOnUse"><stop offset="0" stop-color="#fff"/><stop offset="1" stop-color="#cdbaef"/></linearGradient><linearGradient id="未命名的渐变_19-2" x1="142.13" y1="77.46" x2="351.12" y2="77.46" xlink:href="#未命名的渐变_19"/><linearGradient id="未命名的渐变_19-3" x1="142" y1="179.83" x2="296.92" y2="179.83" xlink:href="#未命名的渐变_19"/></defs><title>资源 14</title><g id="图层_2" data-name="图层 2"><g id="图层_1-2" data-name="图层 1"><path class="cls-1" d="M142.34,335.33h0v-108a25.89,25.89,0,0,1,25.89-25.89h30.91v77.13A56.8,56.8,0,0,1,142.34,335.33Z"/><path class="cls-2" d="M143.15,154.91s-8.29-69.23,22.39-90.38c30.09-20.75,65.6-27.86,109.8-42.32L343.26,0s21.91,34.75-7.41,57.12c-40.2,30.68-101.07,40.3-150.21,61.36C156,131.17,143.15,154.91,143.15,154.91Z"/><path class="cls-3" d="M146.5,183c6.28-13.28,8.75-24.35,34.38-35.44,35.44-15.34,58.59-18.65,82-24.86,19.86-5.27,30.68-8.46,30.68-8.46s11.71,36.19-8.46,53.95c-26.45,23.27-83,30.57-103.81,43.15-23.13,14-38.93,34.06-38.93,34.06S140.23,196.29,146.5,183Z"/><path class="cls-4" d="M38.2,457.47V405.85h3.4c2.66,0,4.82,2.44,4.82,5.46v46.16Z"/><path class="cls-4" d="M38.33,392.86h5a3,3,0,0,1,3,3v7.24a0,0,0,0,1,0,0h-5a3,3,0,0,1-3-3v-7.24A0,0,0,0,1,38.33,392.86Z"/><path class="cls-4" d="M266.83,457.3c-6.61.29-11.77-.45-15.79-1.91-12.07-4.41-14.67-15-14.69-24.13,0-15.39,9.64-25,23-25.11,12.29-.09,21.8,8.33,21.8,25,0,6.83.11,26.51,0,26.35h-7.5c0-.28-.06-19.85-.06-26.23,0-12.24-6.79-16.9-14.6-17.09-6.62-.16-14.68,6.49-15.15,17.07-.29,6.47,1.4,12.15,9.75,16.39a22.1,22.1,0,0,0,8.6,1.91,4.81,4.81,0,0,1,4.61,4.81Z"/><path class="cls-4" d="M111.52,431.38c-.17,6,1.45,13.46,9.69,16.9a20.5,20.5,0,0,0,7.74,1.13,19.32,19.32,0,0,0,6.21-1.17c2.65-1.2,5.92,1.81,6.45,4.64l.26,1.34c-2.31,1-11.08,3.26-14.33,3.25-8.17,0-13.78-3.21-17.66-7.41-5.74-6.22-6.09-12.34-6.27-18-.22-6.64,2.13-14.65,5.53-18.33a23,23,0,0,1,7.52-5.54,23.81,23.81,0,0,1,10-2c5.59,0,12,2.41,15,7.36,3.91,6.48,4.23,11.89,4,18.48l-25.44,4.81,0-3.91c0-2.64,2.45-4.29,5.2-4.78l12.69-2.4c-1-9.13-5-12.34-11.73-12.68-2.09-.1-6.12,1.14-9.63,4.21C114.64,419.63,112,422.78,111.52,431.38Z"/><path class="cls-4" d="M349.64,431.22c-.16,6,1.46,13.46,9.69,16.9a20.5,20.5,0,0,0,7.74,1.13,19.4,19.4,0,0,0,6.22-1.17c2.65-1.2,5.91,1.81,6.45,4.65l.25,1.33c-2.31,1-11.08,3.26-14.33,3.25-8.17,0-13.78-3.21-17.65-7.41-5.75-6.22-6.09-12.34-6.28-18-.22-6.64,2.13-14.65,5.53-18.33a23,23,0,0,1,7.52-5.54,23.87,23.87,0,0,1,10-2c5.59,0,12,2.41,15,7.36,3.91,6.48,4.23,11.89,3.95,18.48l-25.44,4.81,0-3.91c0-2.64,2.45-4.29,5.2-4.78l12.69-2.4c-1-9.13-5-12.34-11.73-12.67-2.09-.11-6.11,1.13-9.63,4.21C352.76,419.47,350.16,422.63,349.64,431.22Z"/><path class="cls-4" d="M298.86,438a9.56,9.56,0,0,0,1.16,5.06,12,12,0,0,0,8.51,5.56,5.2,5.2,0,0,1,3.9,5.28v3.7s-7.11-1-10.86-2.41a19.18,19.18,0,0,1-9-7.08,18.76,18.76,0,0,1-2.7-10.35V381.55h4.2c2.66,0,4.81,2.44,4.81,5.46Z"/><path class="cls-4" d="M390.26,381h9v25.22h12.61v2.84c0,3-4.56,5.46-7.21,5.46h-5.4V432c0,1.59-.16,6.23,1.4,8.88,2.84,4.84,12.07,6.17,13.56,6.46,1.94.38,4.37,1.87,4.37,4.12v5.73l-13.07-2.92c-2.54-.57-9.35-2.83-12.73-8.1-2.5-3.93-2.55-11-2.55-13.83Z"/><path class="cls-4" d="M323.94,437.6a9.56,9.56,0,0,0,1.15,5,12,12,0,0,0,8.51,5.56,5.2,5.2,0,0,1,3.9,5.28v3.7s-7.11-1-10.86-2.41a19.1,19.1,0,0,1-9-7.08,18.68,18.68,0,0,1-2.71-10.35V381.11h4.21c2.65,0,4.81,2.44,4.81,5.46Z"/><path class="cls-4" d="M0,457.47H9V419.39H21.63v-2.84c0-3-4.56-5.47-7.21-5.47H9v.17c0-1.6-.15-11.05,1.41-13.7,2.83-4.85,12.07-6.18,13.56-6.47,1.94-.38,4.36-1.87,4.36-4.12v-5.73s-8.2,1.82-13.06,2.92c-2.54.57-9.35,2.83-12.73,8.11C0,396.19,0,403.29,0,406.1Z"/><path class="cls-4" d="M63.85,457.47H55.64V405.85h3.8c2.66,0,4,2.44,4,5.46Z"/><path class="cls-4" d="M63,411.82c3.21-2.59,7.22-6.29,13.36-6.39,13.1-.2,21.8,8.45,21.8,25.32,0,6.93.11,26.88,0,26.71h-7.5c0-.27-.06-20.12-.06-26.59,0-12.41-6-17.63-14.6-17.33-4.22.15-10.08,4.34-12.8,7.43Z"/><path class="cls-4" d="M192.53,457.47H188a4.81,4.81,0,0,1-4.69-3.74l-16.66-72.42h5.5a4.51,4.51,0,0,1,4.31,3.7l11.95,56.7,13.1-56.79a4.5,4.5,0,0,1,4.29-3.61h4.75Z"/><path class="cls-4" d="M215.8,457.47h-4.58a4.81,4.81,0,0,1-4.68-3.72l-4.71-20.05,4.76-18.29,5.06,25.5,13.1-56a4.5,4.5,0,0,1,4.29-3.61h4.74Z"/></g></g></svg>